<?xml version="1.0" encoding="UTF-8"?><!DOCTYPE svg PUBLIC "-//W3C//DTD SVG 1.1//EN" "http://www.w3.org/Graphics/SVG/1.1/DTD/svg11.dtd"><svg xmlns="http://www.w3.org/2000/svg" xmlns:xlink="http://www.w3.org/1999/xlink"><symbol id="email" viewBox="0 0 16 12"><path d="M8 8a2.22 2.22 0 01-1-.34L0 4v7a1 1 0 001 1h14a1 1 0 001-1V4L9 7.66A2.22 2.22 0 018 8zm7-8H1a1 1 0 00-1 1v.76L8 6l8-4.2V1a1 1 0 00-1-1z"/></symbol><symbol id="field__phone" viewBox="0 0 18 18"><path d="M3.6 7.8a15.57 15.57 0 006.6 6.6l2.2-2.2a.8.8 0 011-.2 10.46 10.46 0 003.6.6.94.94 0 011 1V17a.94.94 0 01-1 1A17 17 0 010 1a.94.94 0 011-1h3.5a.94.94 0 011 1 11.33 11.33 0 00.6 3.6 1.23 1.23 0 01-.2 1L3.6 7.8z"/></symbol></svg>