<?xml version="1.0" encoding="UTF-8"?>
<!DOCTYPE svg PUBLIC "-//W3C//DTD SVG 1.1//EN" "http://www.w3.org/Graphics/SVG/1.1/DTD/svg11.dtd"><svg
  xmlns="http://www.w3.org/2000/svg" xmlns:xlink="http://www.w3.org/1999/xlink">
  <symbol id="factory" viewBox="0 0 30 30">
    <path
      d="M9.082 0H.879A.879.879 0 0 0 0 .879v2.05h9.96V.88A.879.879 0 0 0 9.083 0zM29.558 8.378a.879.879 0 0 0-.88.004l-8.698 5.086V9.14a.879.879 0 0 0-1.322-.76L9.96 13.469v-8.78H0V29.12c0 .486.394.879.879.879H29.12a.879.879 0 0 0 .879-.879V9.141a.879.879 0 0 0-.442-.763zm-16.081 15.44a.879.879 0 0 1-.88.88H9.083a.879.879 0 0 1-.879-.88v-3.515c0-.486.394-.88.879-.88h3.516c.485 0 .879.394.879.88v3.515zm10.02 0a.879.879 0 0 1-.88.88h-3.515a.879.879 0 0 1-.88-.88v-3.515c0-.486.394-.88.88-.88h3.515c.486 0 .88.394.88.88v3.515z" />
  </symbol>
  <symbol id="truck" viewBox="0 0 30 18">
    <path fill-rule="evenodd" clip-rule="evenodd"
      d="M21.387.27c2.6.604 3.596 2.125 4.843 4.218h-4.843V.27zm-15.2 4.394c.508 0 .878.246.878.82a.879.879 0 0 1-.876.88H.879a.879.879 0 0 0 0 1.757h7.91a.879.879 0 1 1 .004 1.758H.879a.879.879 0 1 0 0 1.758h1.933v2.636c0 .486.394.88.88.88h1.766a3.37 3.37 0 0 0 6.603 0h8.924a3.37 3.37 0 0 0 6.604 0h1.532a.879.879 0 0 0 .879-.88V9c0-2.579-2.72-2.75-2.723-2.754h-6.77a.879.879 0 0 1-.878-.879V.094H3.69a.879.879 0 0 0-.878.879v1.933H1.758a.879.879 0 1 0 0 1.758h4.428zm19.24 8.675c.629.63.629 1.65 0 2.28-1.013 1.011-2.751.291-2.751-1.14 0-1.432 1.738-2.152 2.75-1.14zm-15.528 0c.63.63.63 1.65 0 2.28-1.012 1.011-2.75.291-2.75-1.14 0-1.432 1.738-2.152 2.75-1.14z" />
  </symbol>
</svg>