<?xml version="1.0" encoding="UTF-8"?><!DOCTYPE svg PUBLIC "-//W3C//DTD SVG 1.1//EN" "http://www.w3.org/Graphics/SVG/1.1/DTD/svg11.dtd"><svg xmlns="http://www.w3.org/2000/svg" xmlns:xlink="http://www.w3.org/1999/xlink"><symbol id="next" viewBox="0 0 290 492"><path d="M281.678 226.804 62.73 7.86C57.666 2.792 50.906 0 43.698 0S29.73 2.792 24.666 7.86L8.542 23.98c-10.492 10.504-10.492 27.576 0 38.064L192.398 245.9 8.338 429.96c-5.064 5.068-7.86 11.824-7.86 19.028 0 7.212 2.796 13.968 7.86 19.04l16.124 16.116c5.068 5.068 11.824 7.86 19.032 7.86s13.968-2.792 19.032-7.86L281.678 265c5.076-5.084 7.864-11.872 7.848-19.088.016-7.244-2.772-14.028-7.848-19.108z" /></symbol><symbol id="prev" viewBox="0 0 290 492"><path d="M97.608 246.104 281.664 62.04c5.068-5.056 7.856-11.816 7.856-19.024 0-7.212-2.788-13.968-7.856-19.032l-16.128-16.12C260.476 2.792 253.712 0 246.504 0s-13.964 2.792-19.028 7.864L8.328 227.008C3.244 232.088.46 238.876.48 246.092c-.02 7.248 2.76 14.028 7.848 19.112l218.944 218.932c5.064 5.072 11.82 7.864 19.032 7.864 7.208 0 13.964-2.792 19.032-7.864l16.124-16.12c10.492-10.492 10.492-27.572 0-38.06L97.608 246.104z" /></symbol></svg>